<?xml version="1.0" encoding="utf-8"?>
<!-- Generator: Adobe Illustrator 16.0.0, SVG Export Plug-In . SVG Version: 6.00 Build 0)  -->
<!DOCTYPE svg PUBLIC "-//W3C//DTD SVG 1.1//EN" "http://www.w3.org/Graphics/SVG/1.1/DTD/svg11.dtd">
<svg version="1.1" id="Layer_1" xmlns="http://www.w3.org/2000/svg" xmlns:xlink="http://www.w3.org/1999/xlink" x="0px" y="0px"
	 width="40px" height="40px" viewBox="0 0 40 40" enable-background="new 0 0 40 40" xml:space="preserve">
<rect fill="#F17288" width="40" height="40"/>
<g>
	<path fill="#FFFFFF" d="M21.675,1.93C21.633,2.034,20.902,2.119,20,2.119c-0.903,0-1.633-0.085-1.673-0.189l-0.009,0.028v2.361
		c0,0.08,0.064,0.144,0.144,0.144h3.077c0.078,0,0.143-0.063,0.143-0.144V1.958L21.675,1.93z"/>
	<ellipse fill="#FFFFFF" cx="20" cy="1.86" rx="1.648" ry="0.194"/>
	<path fill="#FFFFFF" d="M25.25,36.104V17.617c0-2.183-0.941-4.102-2.366-5.218c-0.149-0.223-1.163-1.833-1.403-4.794V4.594h-2.959
		v3.011c-0.242,2.962-1.255,4.571-1.405,4.794c-1.425,1.116-2.365,3.035-2.365,5.218v18.646c0,1.145,2.341,2.069,5.25,2.069
		s5.248-0.926,5.248-2.069L25.25,36.104z M24.76,28.34c-0.002,0.553-2.133,0.999-4.76,0.999c-2.628,0-4.758-0.446-4.76-0.998v-8.454
		c0,0.552,2.131,0.896,4.761,0.896c2.628,0,4.759-0.344,4.759-0.896V28.34z"/>
</g>
</svg>
