<?xml version="1.0" encoding="utf-8"?>
<!-- Generator: Adobe Illustrator 16.0.0, SVG Export Plug-In . SVG Version: 6.00 Build 0)  -->
<!DOCTYPE svg PUBLIC "-//W3C//DTD SVG 1.1//EN" "http://www.w3.org/Graphics/SVG/1.1/DTD/svg11.dtd">
<svg version="1.1" xmlns="http://www.w3.org/2000/svg" xmlns:xlink="http://www.w3.org/1999/xlink" x="0px" y="0px" width="40px"
	 height="40px" viewBox="0 0 40 40" enable-background="new 0 0 40 40" xml:space="preserve">
<g id="Layer_2">
	<rect fill="#EFC343" width="40" height="40"/>
</g>
<g id="Layer_1">
	<g>
		<path fill="#FFFFFF" d="M21.675,1.93C21.633,2.034,20.902,2.119,20,2.119c-0.903,0-1.633-0.085-1.673-0.189
			c-0.004,0.008-0.009,0.015-0.009,0.028v2.361c0,0.08,0.064,0.144,0.144,0.144h0.058h2.96h0.059c0.078,0,0.143-0.063,0.143-0.144
			V1.958C21.682,1.944,21.678,1.938,21.675,1.93z"/>
		<ellipse fill="#FFFFFF" cx="20" cy="1.86" rx="1.648" ry="0.194"/>
		<path fill="#FFFFFF" d="M25.25,36.104V17.617c0-2.183-0.941-4.102-2.366-5.218c-0.149-0.223-1.163-1.833-1.404-4.794
			c0-0.648,0-1.947,0-3.011h-2.959c0,1.063,0,2.362,0,3.011c-0.242,2.962-1.255,4.571-1.405,4.794
			c-1.425,1.116-2.365,3.035-2.365,5.218v18.486c-0.01,0.052,0,0.106,0,0.16c0,1.145,2.341,2.07,5.25,2.07s5.248-0.926,5.248-2.07
			C25.248,36.21,25.259,36.155,25.25,36.104z M24.76,28.34L24.76,28.34c-0.002,0.553-2.133,0.999-4.76,0.999
			c-2.628,0-4.758-0.446-4.76-0.998l0,0V28.34v-8.453c0,0.552,2.131,0.896,4.761,0.896c2.628,0,4.759-0.344,4.759-0.896V28.34
			L24.76,28.34z"/>
	</g>
</g>
</svg>
