<?xml version="1.0" encoding="utf-8"?>
<!-- Generator: Adobe Illustrator 16.0.0, SVG Export Plug-In . SVG Version: 6.00 Build 0)  -->
<!DOCTYPE svg PUBLIC "-//W3C//DTD SVG 1.1//EN" "http://www.w3.org/Graphics/SVG/1.1/DTD/svg11.dtd">
<svg version="1.1" id="Layer_1" xmlns="http://www.w3.org/2000/svg" xmlns:xlink="http://www.w3.org/1999/xlink" x="0px" y="0px"
	 width="100px" height="64.286px" viewBox="0 0 100 64.286" enable-background="new 0 0 100 64.286" xml:space="preserve">
<polygon fill="#2C3E50" points="96.43,21.429 96.43,25.001 92.857,25.001 92.857,21.429 89.286,21.429 89.286,25.001 85.714,25.001 
	85.714,21.429 82.143,21.429 82.143,25.001 78.572,25.001 78.572,21.429 75,21.429 75,28.571 78.572,32.144 78.572,35.715 
	64.285,35.715 64.285,32.144 59.523,32.144 59.523,25.001 64.285,25.001 50,0 35.714,25.001 40.476,25.001 40.476,32.144 
	35.714,32.144 35.714,35.715 21.429,35.715 21.429,32.144 25,28.571 25,21.429 21.429,21.429 21.429,25.001 17.857,25.001 
	17.857,21.429 14.286,21.429 14.286,25.001 10.714,25.001 10.714,21.429 7.143,21.429 7.143,25.001 3.571,25.001 3.571,21.429 
	0,21.429 0,28.571 3.571,32.144 3.571,64.286 21.429,64.286 78.572,64.286 96.43,64.286 96.43,32.144 100,28.571 100,21.429 "/>
</svg>
