<?xml version="1.0" encoding="utf-8"?>
<!-- Generator: Adobe Illustrator 16.0.0, SVG Export Plug-In . SVG Version: 6.00 Build 0)  -->
<!DOCTYPE svg PUBLIC "-//W3C//DTD SVG 1.1//EN" "http://www.w3.org/Graphics/SVG/1.1/DTD/svg11.dtd">
<svg version="1.1" id="Livello_1" xmlns="http://www.w3.org/2000/svg" xmlns:xlink="http://www.w3.org/1999/xlink" x="0px" y="0px"
	 width="91.09px" height="100px" viewBox="0 0 91.09 100" enable-background="new 0 0 91.09 100" xml:space="preserve">
<circle fill="#2C3E50" stroke="#FFFFFF" stroke-width="0.2755" stroke-miterlimit="10" cx="29.491" cy="42.119" r="9.966"/>
<circle fill="#2C3E50" stroke="#FFFFFF" stroke-width="0.2755" stroke-miterlimit="10" cx="53.333" cy="43.459" r="8.483"/>
<circle fill="#2C3E50" stroke="#FFFFFF" stroke-width="0.2755" stroke-miterlimit="10" cx="75.629" cy="43.963" r="9.964"/>
<circle fill="#2C3E50" stroke="#FFFFFF" stroke-width="0.2755" stroke-miterlimit="10" cx="40.033" cy="58.545" r="8.545"/>
<circle fill="#2C3E50" stroke="#FFFFFF" stroke-width="0.2755" stroke-miterlimit="10" cx="63.1" cy="63.936" r="9.964"/>
<path fill="#2C3E50" d="M87.837,28.829v0.691c-3.685,0.059-7.369,0.03-11.064-0.089c-3.684-0.148-7.369-0.385-11.044-0.721
	c-7.359-0.682-14.68-1.719-21.921-3.29c-7.201-1.66-14.344-3.784-21.062-6.984c-3.339-1.62-6.589-3.517-9.404-6.016
	c-1.383-1.264-2.657-2.687-3.605-4.336C8.778,6.443,8.185,4.537,8.215,2.63l0.701-0.01C9.252,3.52,9.637,4.3,10.161,4.991
	c0.474,0.691,1.027,1.314,1.64,1.857c1.215,1.086,2.539,2.015,4.021,2.766c2.904,1.561,6.065,2.756,9.306,3.813
	c6.5,2.104,13.316,3.685,20.192,5.246l3.447,0.741c2.954-2.055,7.765-7.547,12.468-16.912l2.647,1.333
	c-3.311,6.609-7.528,12.833-11.44,16.379l13.82,2.993C73.335,24.808,80.497,26.398,87.837,28.829z"/>
<circle fill="#2C3E50" cx="81.725" cy="39.691" r="2.563"/>
<circle fill="#2C3E50" stroke="#FFFFFF" stroke-width="0.2755" stroke-miterlimit="10" cx="56.828" cy="86.048" r="7.989"/>
<circle fill="#2C3E50" cx="69.475" cy="59.886" r="2.563"/>
<circle fill="#2C3E50" stroke="#FFFFFF" stroke-width="0.2755" stroke-miterlimit="10" cx="45.802" cy="73.829" r="6.567"/>
</svg>
