<?xml version="1.0" encoding="utf-8"?>
<!-- Generator: Adobe Illustrator 16.0.0, SVG Export Plug-In . SVG Version: 6.00 Build 0)  -->
<!DOCTYPE svg PUBLIC "-//W3C//DTD SVG 1.1//EN" "http://www.w3.org/Graphics/SVG/1.1/DTD/svg11.dtd">
<svg version="1.1" id="Layer_1" xmlns="http://www.w3.org/2000/svg" xmlns:xlink="http://www.w3.org/1999/xlink" x="0px" y="0px"
	 width="100px" height="100px" viewBox="0 0 100 100" enable-background="new 0 0 100 100" xml:space="preserve">
<g id="XMLID_1_">
	<g>
		<g id="XMLID_2_">
			<g>
				<path fill="#800000" d="M98.162,33.965c0.01,0,0.01,0.021,0,0.071c0-0.02,0-0.041-0.01-0.071H98.162z"/>
				<path fill="#800000" d="M98.152,33.965c0.01,0.03,0.01,0.051,0.01,0.071c0,0.021,0,0.051-0.01,0.082
					c-0.491,1.9-8.246,20.766-8.246,20.766h-0.529H10.614c0,0-8.516-19.639-8.776-20.869v-0.01c-0.009-0.01-0.009-0.02-0.009-0.031
					c0,0,0,0,0.009-0.01C7.367,33.956,96.861,33.965,98.152,33.965z"/>
				<path fill="#FFFFFF" d="M89.887,12.925c5.512,5.781,8.334,13.33,8.266,21.041c-1.291,0-90.784-0.01-96.314,0
					c-0.067-7.711,2.755-15.26,8.266-21.041c11.049-11.582,28.91-11.531,39.892,0.112C60.979,1.393,78.838,1.343,89.887,12.925z"/>
				<path fill="#800000" d="M98.152,34.117C98.057,41.797,95.079,49.63,89.039,56C76.322,69.411,56.432,90.4,50.891,96.242
					l38.486-41.359h0.529C89.906,54.884,97.661,36.018,98.152,34.117z"/>
				<polygon fill="#800000" points="89.377,54.884 50.891,96.243 50.4,96.761 49.995,97.188 49.59,96.761 49.099,96.243 
					10.614,54.884 				"/>
				<path fill="#800000" d="M10.614,54.884l38.485,41.359c-5.539-5.842-25.432-26.832-38.148-40.241
					c-6.069-6.401-9.046-14.274-9.113-21.986C2.098,35.245,10.614,54.884,10.614,54.884z"/>
				<path fill="#800000" d="M1.837,33.965c-0.009,0.01-0.009,0.01-0.009,0.01v-0.01H1.837z"/>
			</g>
			<g>
				<path fill="none" stroke="#800000" stroke-width="2" stroke-miterlimit="10" d="M1.837,33.548
					c0.067,7.59,3.044,15.34,9.113,21.64c12.716,13.201,32.609,33.86,38.148,39.61"/>
				<path fill="none" stroke="#800000" stroke-width="2" stroke-miterlimit="10" d="M98.162,33.568c0-0.02,0-0.04-0.01-0.07
					c0.066-7.59-2.756-15.02-8.266-20.71c-11.05-11.4-28.91-11.35-39.893,0.11c-10.982-11.46-28.843-11.51-39.892-0.11
					c-5.51,5.69-8.333,13.12-8.266,20.71c-0.009,0.01-0.009,0.01-0.009,0.01"/>
				<path fill="none" stroke="#800000" stroke-width="2" stroke-miterlimit="10" d="M50.891,94.799
					c5.541-5.75,25.434-26.41,38.148-39.609c6.04-6.271,9.018-13.98,9.113-21.541"/>
				<polyline fill="none" stroke="#800000" stroke-width="2" stroke-miterlimit="10" points="49.59,95.309 49.099,94.799 
					10.614,54.089 				"/>
				<polyline fill="none" stroke="#800000" stroke-width="2" stroke-miterlimit="10" points="89.377,54.089 50.891,94.799 
					50.4,95.309 				"/>
				<path fill="none" stroke="#800000" stroke-miterlimit="10" d="M89.906,54.089c0,0,7.755-18.57,8.246-20.44
					c0.01-0.03,0.01-0.06,0.01-0.08c0.01-0.05,0.01-0.07,0-0.07h-0.01c-1.291,0-90.785-0.01-96.315,0H1.828v0.01
					c0,0.01,0,0.02,0.009,0.03v0.01c0.26,1.21,8.776,20.541,8.776,20.541"/>
			</g>
		</g>
	</g>
</g>
</svg>
