<?xml version="1.0" encoding="utf-8"?>
<!-- Generator: Adobe Illustrator 16.0.0, SVG Export Plug-In . SVG Version: 6.00 Build 0)  -->
<!DOCTYPE svg PUBLIC "-//W3C//DTD SVG 1.1//EN" "http://www.w3.org/Graphics/SVG/1.1/DTD/svg11.dtd">
<svg version="1.1" id="Layer_1" xmlns="http://www.w3.org/2000/svg" xmlns:xlink="http://www.w3.org/1999/xlink" x="0px" y="0px"
	 width="40px" height="40px" viewBox="32.334 30 40 40" enable-background="new 32.334 30 40 40" xml:space="preserve">
<g>
	<text transform="matrix(1 0 0 1 34.5933 48.8232)" stroke="#800000" font-family="'Quicksand-Light'" font-size="23.5764">4</text>
	<g>
		<path fill="#800000" d="M64.946,36.44c0,0-0.382,0.441-1.051,1.214c-0.685,0.758-1.633,1.869-2.822,3.151
			c-1.19,1.282-2.557,2.799-4.062,4.385c-1.498,1.593-3.122,3.266-4.744,4.941c-1.637,1.661-3.271,3.324-4.829,4.857
			c-1.549,1.543-3.036,2.942-4.289,4.163c-1.254,1.22-2.343,2.192-3.085,2.895c-0.757,0.686-1.19,1.078-1.19,1.078
			s0.382-0.441,1.051-1.215c0.684-0.758,1.631-1.869,2.822-3.151c1.19-1.281,2.555-2.801,4.062-4.385
			c1.497-1.593,3.122-3.266,4.744-4.94c1.638-1.661,3.272-3.323,4.83-4.857c1.551-1.542,3.036-2.942,4.289-4.163
			c1.255-1.219,2.343-2.193,3.085-2.895C64.514,36.833,64.946,36.44,64.946,36.44z"/>
	</g>
	<text transform="matrix(1 0 0 1 55.8115 66.1709)" stroke="#800000" font-family="'Quicksand-Light'" font-size="23.5764">5</text>
</g>
</svg>
