<?xml version="1.0" encoding="utf-8"?>
<!-- Generator: Adobe Illustrator 16.0.0, SVG Export Plug-In . SVG Version: 6.00 Build 0)  -->
<!DOCTYPE svg PUBLIC "-//W3C//DTD SVG 1.1//EN" "http://www.w3.org/Graphics/SVG/1.1/DTD/svg11.dtd">
<svg version="1.1" id="Calque_1" xmlns="http://www.w3.org/2000/svg" xmlns:xlink="http://www.w3.org/1999/xlink" x="0px" y="0px"
	 width="399.172px" height="79.333px" viewBox="0 0 399.172 79.333" enable-background="new 0 0 399.172 79.333"
	 xml:space="preserve">
<circle fill="#800000" cx="49.162" cy="39.667" r="37.311"/>
<path fill="#FFFFFF" d="M35.803,16.956c0-0.475,0.339-0.881,0.88-0.881c0.407,0,0.813,0.406,0.813,0.881v18.897
	c0,6.502,5.215,11.718,11.582,11.718c6.435,0,11.649-5.216,11.649-11.718V16.956c0-0.475,0.474-0.881,0.881-0.881
	c0.474,0,0.88,0.406,0.88,0.881v18.897c0,7.45-6.028,13.409-13.411,13.409c-7.314,0-13.275-5.959-13.275-13.409V16.956z"/>
<g>
	<path fill="#FFFFFF" d="M48.3,48.15c0-0.197,0.338-0.367,0.88-0.367c0.474,0,0.812,0.17,0.812,0.367v19.067
		c0,0.198-0.339,0.368-0.812,0.368c-0.542,0-0.88-0.17-0.88-0.368V48.15z"/>
</g>
<g>
	<path fill="#FFFFFF" stroke="#FFFFFF" stroke-miterlimit="10" d="M59.158,34.942c0,0-5.286,0.011-8.266-1.789
		c-6.818-3.983-11.513-1.782-11.627-1.685c-0.569,6.371,0.332,14.04,10.167,14.366C58.037,45.747,59.231,37.339,59.158,34.942z"/>
</g>
<path fill="#FFFFFF" d="M102.336,28.712c-0.204-0.406,0.067-0.88,0.474-1.083c0.474-0.203,0.88,0,1.083,0.474l12.46,29.458
	l12.46-29.458c0.136-0.474,0.609-0.677,1.016-0.474c0.475,0.203,0.745,0.677,0.542,1.083l-13.205,31.286
	c0,0.067-0.068,0.203-0.135,0.271c-0.203,0.203-0.406,0.339-0.61,0.339h-0.067h-0.203c-0.203-0.067-0.474-0.271-0.609-0.542
	L102.336,28.712z"/>
<path fill="#FFFFFF" d="M144.323,17.607c0-0.542,0.339-0.881,0.881-0.881c0.406,0,0.812,0.339,0.812,0.881v1.625
	c0,0.406-0.406,0.812-0.812,0.812c-0.542,0-0.881-0.406-0.881-0.812V17.607z M144.323,28.239c0-0.542,0.339-0.812,0.881-0.812
	c0.406,0,0.812,0.271,0.812,0.812v31.489c0,0.474-0.406,0.88-0.812,0.88c-0.542,0-0.881-0.406-0.881-0.88V28.239z"/>
<path fill="#FFFFFF" d="M188.342,40.834c0-6.569-5.282-11.716-11.647-11.716s-11.715,5.146-11.715,11.716v18.894
	c0,0.203-0.068,0.406-0.203,0.541c-0.136,0.203-0.339,0.339-0.61,0.339h-0.135h-0.136c-0.067-0.067-0.136-0.067-0.203-0.136
	c-0.067,0-0.136-0.067-0.203-0.135c-0.067-0.068-0.067-0.068-0.067-0.136c-0.068-0.067-0.136-0.203-0.136-0.339v-0.135V40.834
	v-0.542V28.239c0-0.542,0.406-0.812,0.88-0.812c0.475,0,0.813,0.271,0.813,0.812v6.095c2.302-4.131,6.704-6.907,11.715-6.907
	c7.313,0,13.341,5.959,13.341,13.408v18.894c0,0.474-0.406,0.88-0.881,0.88c-0.541,0-0.812-0.406-0.812-0.88V40.834z"/>
<path fill="#FFFFFF" d="M204.868,17.607c0-0.542,0.339-0.881,0.881-0.881c0.406,0,0.812,0.339,0.812,0.881v1.625
	c0,0.406-0.406,0.812-0.812,0.812c-0.542,0-0.881-0.406-0.881-0.812V17.607z M204.868,28.239c0-0.542,0.339-0.812,0.881-0.812
	c0.406,0,0.812,0.271,0.812,0.812v31.489c0,0.474-0.406,0.88-0.812,0.88c-0.542,0-0.881-0.406-0.881-0.88V28.239z"/>
<path fill="#FFFFFF" d="M237.375,13.95c0,0.475-0.406,0.881-0.881,0.881c-2.438,0-3.995,0.541-4.943,1.625
	c-1.016,1.083-1.558,3.047-1.558,6.229v4.47h5.688c0.475,0,0.812,0.406,0.812,0.881c0,0.474-0.338,0.88-0.812,0.88h-5.688V59.66
	c0,0.475-0.406,0.881-0.88,0.881c-0.475,0-0.881-0.406-0.881-0.881V28.916h-5.417c-0.475,0-0.881-0.406-0.881-0.88
	c0-0.475,0.406-0.881,0.881-0.881h5.417v-4.47c0-3.386,0.609-5.756,2.032-7.381c1.489-1.625,3.589-2.167,6.229-2.167
	C236.969,13.137,237.375,13.476,237.375,13.95z"/>
<path fill="#FFFFFF" d="M245.571,28.306c0-0.474,0.339-0.88,0.88-0.88c0.406,0,0.812,0.406,0.812,0.88V47.2
	c0,6.365,5.215,11.58,11.648,11.58c6.162,0,11.173-4.943,11.444-11.106V28.306V28.17c0-0.067,0.067-0.203,0.135-0.338
	c0,0,0-0.068,0.068-0.068l0.203-0.203c0.135-0.067,0.271-0.135,0.474-0.135h0.136c0.067,0,0.136,0.067,0.203,0.067l0.203,0.203
	c0.067,0,0.067,0.067,0.067,0.067c0.136,0.136,0.203,0.339,0.203,0.542v30.405c0,8.533-6.907,15.575-15.575,15.575
	c-2.438,0-4.74-0.609-6.771-1.625c-0.475-0.203-0.609-0.677-0.339-1.151c0.136-0.406,0.678-0.541,1.016-0.406
	c1.896,0.948,3.86,1.49,6.095,1.49c7.72,0,13.883-6.23,13.883-13.883v-5.011c-2.167,4.063-6.501,6.771-11.444,6.771
	c-7.382,0-13.341-5.959-13.341-13.272V28.306z"/>
</svg>
