<?xml version="1.0" encoding="utf-8"?>
<!-- Generator: Adobe Illustrator 16.0.0, SVG Export Plug-In . SVG Version: 6.00 Build 0)  -->
<!DOCTYPE svg PUBLIC "-//W3C//DTD SVG 1.1//EN" "http://www.w3.org/Graphics/SVG/1.1/DTD/svg11.dtd">
<svg version="1.1" id="Calque_1" xmlns="http://www.w3.org/2000/svg" xmlns:xlink="http://www.w3.org/1999/xlink" x="0px" y="0px"
	 width="39.896px" height="39.896px" viewBox="17.363 17.364 39.896 39.896" enable-background="new 17.363 17.364 39.896 39.896"
	 xml:space="preserve">
<ellipse fill="#800D07" cx="37.311" cy="33.896" rx="14.001" ry="14.251"/>
<path fill="#FFFFFF" d="M32.304,25.221c0-0.181,0.127-0.337,0.33-0.337c0.152,0,0.305,0.156,0.305,0.337v7.218
	c0,2.484,1.958,4.477,4.347,4.477c2.415,0,4.372-1.993,4.372-4.477v-7.218c0-0.181,0.179-0.337,0.33-0.337
	c0.178,0,0.329,0.156,0.329,0.337v7.218c0,2.846-2.261,5.122-5.031,5.122c-2.746,0-4.982-2.277-4.982-5.122V25.221z"/>
<g>
	<path fill="#FFFFFF" d="M36.993,37.136c0-0.076,0.127-0.14,0.331-0.14c0.178,0,0.304,0.064,0.304,0.14v7.284
		c0,0.075-0.126,0.14-0.304,0.14c-0.204,0-0.331-0.063-0.331-0.14V37.136z"/>
</g>
<g>
	<path fill="#FFFFFF" stroke="#FFFFFF" stroke-miterlimit="10" d="M41.068,32.091c0,0-1.983,0.004-3.103-0.684
		c-2.559-1.522-4.321-0.681-4.363-0.643c-0.213,2.433,0.125,5.363,3.815,5.486C40.646,36.219,41.095,33.007,41.068,32.091z"/>
</g>
</svg>
